<?xml version="1.0" encoding="utf-8"?>
<!-- Generator: Adobe Illustrator 18.0.0, SVG Export Plug-In . SVG Version: 6.00 Build 0)  -->
<!DOCTYPE svg PUBLIC "-//W3C//DTD SVG 1.1//EN" "http://www.w3.org/Graphics/SVG/1.1/DTD/svg11.dtd">
<svg version="1.1" id="Layer_1" xmlns="http://www.w3.org/2000/svg" xmlns:xlink="http://www.w3.org/1999/xlink" x="0px" y="0px"
	 width="194.2px" height="35.8px" viewBox="0 0 194.2 35.8" enable-background="new 0 0 194.2 35.8" xml:space="preserve">
<path fill="#4B575E" d="M194.2,21.7c-0.2,0.2-0.4,0.3-0.7,0.2c-0.3-0.1-0.3-0.4-0.3-0.7c0-1.5,0-2.9,0-4.4c0-0.2,0-0.5,0-0.7
	c-0.2-1.3-1-1.8-2.3-1.7c-1.1,0.1-1.9,1-1.9,2.1c0,1.5,0,3.1,0,4.6c0,0.2,0,0.3,0,0.5c-0.1,0.2-0.2,0.4-0.5,0.4
	c-0.2,0-0.4-0.1-0.5-0.4c0-0.1,0-0.3,0-0.4c0-1.5,0-2.9,0-4.4c0-0.2,0-0.4,0-0.6c-0.2-1.4-1-1.9-2.4-1.8c-1.1,0.1-1.9,1-1.9,2.2
	c0,1.5,0,3,0,4.5c0,0.1,0,0.3,0,0.4c0,0.3-0.2,0.5-0.5,0.5c-0.3,0-0.5-0.2-0.5-0.6c0-2.5,0-4.9,0-7.4c0-0.3,0.1-0.5,0.5-0.6
	c0.3,0,0.5,0.2,0.5,0.5c0,0.1,0,0.2,0,0.4c0.2-0.1,0.3-0.3,0.4-0.4c1-0.8,3.4-0.9,4.3,0.5c0.2,0.2,0.2,0.2,0.4,0
	c1-1.1,2.9-1.4,4.2-0.7c0.6,0.3,1,0.8,1.2,1.5c0,0.1,0.1,0.3,0.1,0.4C194.2,17.6,194.2,19.6,194.2,21.7z"/>
<path fill="#4B575E" d="M108.2,15.6c0,1.4,0,2.5-0.3,3.5c-0.7,2.3-2.5,3-4.4,2.8c-2.3-0.2-3.4-1.8-3.6-4c-0.1-1.5-0.1-3.1,0.1-4.6
	c0.4-3.1,3.8-4.7,6.4-2.9c1.1,0.7,1.5,1.8,1.7,2.9C108.2,14.2,108.2,15,108.2,15.6z M100.9,15.9c0,0.6,0,1.3,0.1,2
	c0.1,0.6,0.2,1.3,0.6,1.8c0.7,1,1.9,1.4,3.3,1.1c1.1-0.2,1.9-1.1,2.1-2.4c0.2-1.7,0.3-3.4,0-5.2c-0.2-1.5-1.2-2.6-3.1-2.5
	c-1.5,0.1-2.6,1-2.8,2.5C100.9,14.2,100.8,15,100.9,15.9z"/>
<path fill="#4B575E" d="M44,18.7c-0.7,0-1.4,0-2.1,0c-0.3,0-0.4,0.1-0.5,0.3c-0.3,0.8-0.6,1.6-0.8,2.3c-0.1,0.2-0.2,0.4-0.4,0.5
	c-0.2,0.1-0.4,0-0.5-0.1c-0.2-0.2-0.2-0.4-0.1-0.6c0.3-0.9,0.6-1.7,0.9-2.6c1-2.6,1.9-5.3,2.9-7.9c0-0.1,0.1-0.2,0.1-0.2
	c0.1-0.3,0.3-0.5,0.6-0.5c0.3,0,0.5,0.2,0.6,0.5c0.2,0.5,0.4,1,0.5,1.5c1.1,3,2.2,6,3.2,9c0,0.1,0.1,0.2,0.1,0.4
	c0.1,0.3,0,0.5-0.3,0.6c-0.3,0.1-0.5,0-0.7-0.3c-0.2-0.5-0.4-0.9-0.5-1.4c-0.1-0.4-0.3-0.7-0.4-1.1c-0.1-0.2-0.2-0.3-0.4-0.3
	C45.5,18.7,44.8,18.7,44,18.7z M44.1,11.7C44,11.8,44,11.8,44,11.9c-0.7,1.8-1.3,3.7-2,5.5c-0.1,0.3,0,0.3,0.2,0.3
	c1.2,0,2.4,0,3.6,0c0.3,0,0.3-0.1,0.2-0.4c-0.3-0.8-0.6-1.6-0.8-2.3C44.9,13.9,44.5,12.8,44.1,11.7z"/>
<path fill="#4B575E" d="M138.2,15.9c0-1.8,0-3.6,0-5.3c0-0.4,0.1-0.6,0.5-0.6c1.5,0,3-0.1,4.5,0.1c2.5,0.4,3.7,3.2,2.3,5.3
	c-0.6,0.9-1.5,1.2-2.5,1.4c-1,0.1-2.1,0-3.1,0.1c-0.5,0-0.5,0-0.5,0.5c0,1.2,0,2.4,0,3.6c0,0.1,0,0.2,0,0.3c0,0.5-0.2,0.7-0.6,0.7
	c-0.4,0-0.5-0.2-0.5-0.7c0,0,0,0,0,0C138.2,19.3,138.2,17.6,138.2,15.9z M139.3,13.3c0,0.7,0,1.3,0,2c0,0.2,0.1,0.4,0.3,0.4
	c1.1,0,2.1,0,3.2,0c1.3-0.1,2.1-0.9,2.1-2.1c0-1.4-0.6-2.3-1.9-2.5c-1.1-0.2-2.3,0-3.4-0.1c-0.3,0-0.3,0.2-0.3,0.4
	C139.3,11.9,139.3,12.6,139.3,13.3z"/>
<path fill="#4B575E" d="M55.1,21C54,22.4,51,22.4,50,20.4c-0.5-1.1-0.6-2.3-0.5-3.5c0-0.5,0.1-1,0.2-1.5c0.7-2.3,3.5-3,5.2-1.3
	c0,0,0.1,0,0.1,0.1c0.1-0.1,0.1-0.2,0.1-0.3c0-1.1,0-2.2,0-3.2c0-0.2,0-0.3,0-0.5c0.1-0.3,0.2-0.4,0.5-0.4c0.3,0,0.4,0.2,0.5,0.5
	c0,0.1,0,0.2,0,0.3c0,3.5,0,7,0,10.5c0,0.1,0,0.2,0,0.3c0,0.3-0.2,0.4-0.5,0.5c-0.3,0-0.5-0.1-0.5-0.4C55.1,21.3,55.1,21.2,55.1,21z
	 M50.5,17.6c0,0.6,0,1.2,0.2,1.8c0.3,1.1,1.1,1.7,2.4,1.6c1-0.1,1.7-0.8,1.9-1.9c0.1-1,0.1-2,0-3c-0.1-1.1-0.9-1.8-1.8-1.9
	c-1.3-0.1-2.1,0.4-2.5,1.5C50.5,16.4,50.5,17,50.5,17.6z"/>
<path fill="#4B575E" d="M110.8,20.9c0,1.2,0,2.3,0,3.5c0,0.2-0.1,0.5-0.3,0.6c-0.3,0.1-0.6,0-0.7-0.3c0-0.1,0-0.2,0-0.3
	c0-3.4,0-6.8,0-10.2c0-0.1,0-0.2,0-0.3c0-0.3,0.2-0.4,0.5-0.4c0.3,0,0.4,0.2,0.5,0.4c0,0.1,0,0.3,0,0.5c0.6-0.8,1.4-1.1,2.3-1.1
	c1.5,0,2.6,0.8,3,2.2c0.4,1.4,0.4,2.8,0,4.2c-0.6,2-2.8,2.9-4.6,1.9C111.3,21.4,111,21.2,110.8,20.9z M115.4,17.6
	c0-0.6,0-1.2-0.2-1.8c-0.3-1.1-1.1-1.6-2.4-1.5c-1,0.1-1.7,0.7-1.9,1.7c-0.2,1-0.2,2.1,0,3.1c0.2,1.2,0.9,1.8,2.1,1.8
	c1.2,0,1.9-0.6,2.2-1.8C115.3,18.7,115.4,18.1,115.4,17.6z"/>
<path fill="#4B575E" d="M157,17.8c0,0.3,0,0.6,0,0.9c0,0.8,0,1.7,0.5,2.4c0.2,0.2,0.1,0.5-0.1,0.7c-0.3,0.2-0.5,0.1-0.7-0.1
	c-0.1-0.1-0.1-0.2-0.2-0.3c-0.1-0.3-0.3-0.4-0.6-0.1c-1,0.9-3.1,1-4.2,0.2c-0.8-0.6-1.2-1.5-1-2.6c0.2-0.9,0.9-1.6,2-1.8
	c0.9-0.2,1.8-0.1,2.7-0.1c0.5,0,0.6,0,0.5-0.6c0,0,0,0,0,0c-0.1-1.9-1-2.3-2.9-2c-0.4,0.1-0.7,0.2-1.1,0.4c-0.4,0.2-0.7,0.1-0.8-0.1
	c-0.1-0.3,0-0.6,0.3-0.8c1.3-0.7,2.8-0.9,4.2-0.2c0.9,0.4,1.2,1.3,1.2,2.2C157.1,16.5,157,17.1,157,17.8C157,17.8,157,17.8,157,17.8
	z M154.4,17.9c-0.4,0-1,0-1.6,0.1c-0.7,0.2-1.1,0.6-1.1,1.4c0,0.7,0.3,1.2,1.1,1.4c0.6,0.2,1.2,0.2,1.7,0c1-0.2,1.5-0.8,1.5-1.8
	c0-0.3,0-0.6,0-0.9c0-0.2-0.1-0.3-0.3-0.3C155.4,17.9,155,17.9,154.4,17.9z"/>
<path fill="#4B575E" d="M79.9,17.6c0,0.5,0,0.9,0,1.4c0,0.7,0.1,1.3,0.5,1.9c0.2,0.4,0.2,0.7-0.1,0.8c-0.3,0.2-0.6,0-0.8-0.3
	c-0.3-0.5-0.3-0.5-0.8-0.1c-1,0.8-2.8,0.8-3.9,0.2c-0.9-0.5-1.3-1.5-1.1-2.6c0.2-1,0.9-1.7,2.1-1.9c0.9-0.2,1.8-0.1,2.7-0.1
	c0.6,0,0.6,0,0.6-0.6c0-0.3,0-0.6-0.1-0.9c-0.1-0.7-0.7-1.1-1.4-1.2c-0.8-0.1-1.6,0-2.4,0.4c-0.1,0-0.2,0.1-0.2,0.1
	c-0.3,0.1-0.5,0.1-0.6-0.2c-0.1-0.2-0.1-0.5,0.2-0.6c0.3-0.3,0.7-0.4,1.1-0.5c0.8-0.2,1.6-0.2,2.3-0.1c1.3,0.2,2.1,1.1,2.1,2.4
	C79.9,16.4,79.9,17,79.9,17.6C79.9,17.6,79.9,17.6,79.9,17.6z M78.9,18.8c0-0.2,0-0.3,0-0.4c0-0.3-0.1-0.4-0.4-0.4
	c-0.5,0-0.9,0-1.4,0c-0.5,0-1,0-1.5,0.1c-0.7,0.2-1,0.7-1,1.4c0,0.7,0.4,1.1,1,1.3c0.5,0.2,1.1,0.1,1.7,0.1c0.6-0.1,1.2-0.4,1.5-1
	C78.9,19.6,79,19.1,78.9,18.8z"/>
<path fill="#4B575E" d="M69.5,17.9c-0.8,0-1.5,0-2.3,0c-0.3,0-0.4,0.1-0.4,0.4c0,0.2,0,0.5,0.1,0.7c0.3,1.5,1.5,2.2,3,1.9
	c0.5-0.1,1-0.3,1.4-0.7c0.1-0.1,0.1-0.1,0.2-0.2c0.2-0.2,0.5-0.2,0.7,0c0.2,0.2,0.2,0.5,0,0.7c-0.5,0.7-1.2,1-2.1,1.2
	c-0.6,0.1-1.2,0.1-1.9,0c-1.2-0.3-2-1.1-2.3-2.3c-0.3-1.2-0.3-2.5,0-3.8c0.4-1.7,1.6-2.6,3.4-2.6c1.7,0.1,2.8,1.1,3.1,2.8
	c0.1,0.4,0.1,0.8,0.1,1.2c0,0.5-0.1,0.7-0.7,0.7C71.1,17.9,70.3,17.9,69.5,17.9C69.5,17.9,69.5,17.9,69.5,17.9z M69.1,17
	c0.7,0,1.3,0,2,0c0.2,0,0.4,0,0.4-0.3c0-0.7-0.2-1.3-0.7-1.8c-0.6-0.6-1.8-0.8-2.7-0.4c-0.8,0.4-1.3,1.4-1.2,2.3
	c0,0.2,0.2,0.2,0.3,0.2C67.8,17,68.5,17,69.1,17z"/>
<path fill="#4B575E" d="M121.5,17.9c-0.8,0-1.5,0-2.3,0c-0.3,0-0.4,0.1-0.4,0.4c0,0.6,0.1,1.1,0.4,1.6c0.5,0.9,1.5,1.2,2.7,1
	c0.6-0.1,1.1-0.4,1.5-0.8c0.2-0.2,0.5-0.3,0.7-0.1c0.2,0.2,0.1,0.5-0.1,0.7c0,0-0.1,0.1-0.1,0.1c-0.6,0.7-1.4,1-2.3,1.1
	c-1.8,0.2-3.2-0.5-3.8-2.3c-0.2-0.8-0.3-1.6-0.2-2.3c0-0.7,0.1-1.4,0.3-2c0.5-1.3,1.6-2,3-2c1.5,0,2.6,0.8,3.1,2
	c0.2,0.7,0.3,1.4,0.3,2.1c0,0.4-0.2,0.6-0.7,0.6C123,17.9,122.2,17.9,121.5,17.9C121.5,17.9,121.5,17.9,121.5,17.9z M121,17
	c0.7,0,1.3,0,2,0c0.2,0,0.4,0,0.3-0.3c0-0.7-0.2-1.4-0.7-1.9c-0.7-0.7-1.8-0.8-2.7-0.4c-0.9,0.5-1.2,1.5-1.2,2.3
	c0,0.2,0.2,0.2,0.3,0.2C119.8,17,120.4,17,121,17z"/>
<path fill="#4B575E" d="M171.8,22c-1.8,0-3-1.1-3.3-3c-0.2-1-0.1-2.1,0.1-3.1c0.4-1.7,1.6-2.7,3.4-2.6c1.7,0,2.9,1.1,3.2,2.8
	c0.2,1,0.2,2.1,0,3.1C174.8,20.9,173.6,22,171.8,22z M169.5,17.7c0,0.3,0,0.7,0.1,1.1c0,0.2,0.1,0.4,0.1,0.6
	c0.3,1.1,1.1,1.6,2.2,1.6c1.1,0,1.9-0.6,2.1-1.7c0.3-1,0.3-2.1,0-3.2c-0.3-1.2-1.1-1.8-2.3-1.8c-1.2,0-1.9,0.7-2.2,1.9
	C169.5,16.6,169.5,17.1,169.5,17.7z"/>
<path fill="#4B575E" d="M127,14.2c0.6-0.6,1.2-0.9,2-1c1.9-0.2,3.2,0.9,3.3,2.8c0.1,1.7,0,3.5,0,5.2c0,0.4-0.2,0.6-0.5,0.6
	c-0.3,0-0.5-0.2-0.5-0.6c0-1.5,0-3.1,0-4.6c0-0.4-0.1-0.8-0.2-1.2c-0.3-0.9-1.2-1.3-2.3-1.2c-0.9,0.1-1.7,0.9-1.7,1.9
	c0,1.5,0,3,0,4.6c0,0.2,0,0.4,0,0.5c0,0.4-0.2,0.6-0.5,0.6c-0.4,0-0.5-0.3-0.5-0.6c0-0.1,0-0.2,0-0.3c0-2.3,0-4.5,0-6.8
	c0-0.1,0-0.3,0-0.4c0-0.3,0.2-0.5,0.5-0.4c0.3,0,0.4,0.2,0.5,0.4C127,13.9,127,14,127,14.2z"/>
<path fill="#4B575E" d="M89.1,14.2c0.5-0.6,1.2-0.9,1.9-1c1.9-0.2,3.3,1,3.4,3c0,1.7,0,3.3,0,5c0,0.2,0,0.5-0.3,0.6
	c-0.4,0.2-0.8,0-0.8-0.5c0-1.5,0-3,0-4.5c0-0.4,0-0.9-0.2-1.3c-0.3-0.9-1.2-1.3-2.3-1.2c-1,0.1-1.7,0.9-1.8,1.9c0,0.8,0,1.7,0,2.6
	c0,0.8,0,1.5,0,2.3c0,0.2,0,0.4-0.1,0.5c-0.1,0.2-0.3,0.3-0.5,0.3c-0.2,0-0.4-0.1-0.5-0.3c0-0.2-0.1-0.4-0.1-0.6c0-2.2,0-4.4,0-6.7
	c0-0.2,0-0.3,0-0.5c0-0.3,0.2-0.5,0.5-0.5c0.3,0,0.4,0.2,0.5,0.4C89,13.9,89,14,89.1,14.2z"/>
<path fill="#4B575E" d="M57.9,15.8c0-1.7,0-3.5,0-5.2c0-0.1,0-0.2,0-0.3c0-0.3,0.2-0.4,0.5-0.5c0.3,0,0.5,0.1,0.5,0.4
	c0,0.1,0,0.3,0,0.4c0,3.2,0,6.3,0,9.5c0,0.5,0,0.5,0.6,0.5c1.6,0,3.1,0,4.7,0c0.2,0,0.4,0,0.5,0c0.3,0,0.4,0.2,0.4,0.5
	c0,0.3-0.1,0.5-0.4,0.5c-0.1,0-0.2,0-0.3,0c-1.9,0-3.8,0-5.7,0c-0.6,0-0.7-0.1-0.7-0.7C57.9,19.3,57.9,17.6,57.9,15.8z"/>
<path fill="#4B575E" d="M164.7,18c0-1.1,0-2.1,0-3.2c0-0.3-0.1-0.5-0.4-0.4c0,0-0.1,0-0.2,0c-0.4,0-0.6-0.2-0.6-0.5
	c0-0.3,0.2-0.5,0.7-0.5c0.6,0,0.6,0,0.6-0.6c0-0.4,0-0.9,0.1-1.3c0.1-0.9,0.6-1.4,1.5-1.6c0.4-0.1,0.7-0.1,1.1,0
	c0.3,0,0.4,0.2,0.4,0.5c0,0.3-0.1,0.5-0.4,0.5c-0.2,0-0.5,0-0.8,0.1c-0.5,0-0.8,0.3-0.9,0.8c-0.1,0.5,0,1,0,1.4
	c0,0.2,0.1,0.3,0.3,0.3c0.4,0,0.8,0,1.2,0c0.3,0,0.6,0.1,0.6,0.5c0,0.3-0.2,0.5-0.6,0.5c-0.4,0-0.7,0-1.1,0c-0.3,0-0.4,0.1-0.4,0.4
	c0,2.1,0,4.2,0,6.2c0,0.1,0,0.3,0,0.4c0,0.3-0.2,0.4-0.5,0.5c-0.3,0-0.5-0.1-0.5-0.4c0-0.1,0-0.3,0-0.4C164.7,20,164.7,19,164.7,18z
	"/>
<path fill="#4B575E" d="M159.6,17.4c0-1,0-1.7,0-2.5c0-0.4-0.1-0.6-0.5-0.5c-0.1,0-0.3,0-0.4,0c-0.2-0.1-0.4-0.2-0.4-0.4
	c0-0.2,0.1-0.4,0.3-0.4c0.1,0,0.2,0,0.3,0c0.6,0,0.6,0,0.6-0.6c0-0.5,0-0.9,0-1.4c0-0.5,0.2-0.7,0.5-0.7c0.3,0,0.5,0.2,0.5,0.7
	c0,0.5,0,1.1,0,1.6c0,0.3,0.1,0.4,0.4,0.4c0.3,0,0.6,0,0.9,0c0.3,0,0.6,0.1,0.6,0.5c0,0.4-0.3,0.5-0.6,0.5c-0.3,0-0.6,0-1,0
	c-0.2,0-0.3,0.1-0.3,0.3c0,1.7,0,3.5,0,5.2c0,0.6,0.2,0.8,0.8,0.9c0.2,0,0.4,0,0.6,0.1c0.3,0,0.4,0.2,0.4,0.5c0,0.3-0.2,0.5-0.4,0.5
	c-0.3,0-0.6,0-1,0c-0.9-0.1-1.4-0.7-1.5-1.6C159.5,19.2,159.6,18.2,159.6,17.4z"/>
<path fill="#4B575E" d="M148.3,15.3c0,1.5,0,3,0,4.5c0,0.8,0.1,0.9,0.9,1c0.3,0,0.5,0.2,0.5,0.5c0,0.3-0.2,0.5-0.5,0.5
	c-1.3,0.1-1.8-0.4-1.9-1.6c0-0.2,0-0.4,0-0.6c0-2.9,0-5.8,0-8.8c0-0.2,0-0.4,0-0.6c0-0.3,0.2-0.4,0.5-0.4c0.3,0,0.4,0.2,0.5,0.4
	c0,0.1,0,0.3,0,0.5C148.3,12.3,148.3,13.8,148.3,15.3z"/>
<path fill="#4B575E" d="M177.9,14.4c0.8-1.1,1.8-1.3,3-1c0.1,0,0.3,0.1,0.4,0.2c0.4,0.2,0.5,0.4,0.4,0.7c-0.1,0.3-0.4,0.4-0.8,0.2
	c-0.3-0.1-0.6-0.2-1-0.2c-0.9,0-1.5,0.4-1.8,1.2c-0.2,0.5-0.2,0.9-0.2,1.4c0,1.4,0,2.7,0,4.1c0,0.1,0,0.3,0,0.4
	c-0.1,0.3-0.2,0.5-0.5,0.4c-0.3,0-0.4-0.2-0.5-0.4c0-0.2,0-0.3,0-0.5c0-2.2,0-4.5,0-6.7c0-0.2,0-0.3,0-0.5c0-0.3,0.2-0.4,0.5-0.4
	c0.3,0,0.5,0.1,0.5,0.4C177.8,14,177.8,14.1,177.9,14.4z"/>
<path fill="#4B575E" d="M83,14.3c1-1.1,2-1.4,3.2-0.9c0.1,0,0.2,0.1,0.3,0.2c0.3,0.2,0.4,0.4,0.2,0.7c-0.1,0.3-0.4,0.3-0.7,0.2
	c-0.4-0.2-0.8-0.3-1.3-0.3c-0.7,0-1.2,0.3-1.5,0.9c-0.3,0.5-0.4,1-0.4,1.5c0,1.4,0,2.9,0,4.3c0,0.2,0,0.3-0.1,0.5
	c-0.1,0.3-0.3,0.4-0.5,0.3c-0.2,0-0.4-0.2-0.4-0.4c0-0.1,0-0.2,0-0.3c0-2.4,0-4.7,0-7.1c0-0.1,0-0.2,0-0.3c0.1-0.2,0.2-0.4,0.5-0.4
	c0.2,0,0.4,0.1,0.5,0.3C82.9,13.9,82.9,14.1,83,14.3z"/>
<path fill="#BDDCE2" d="M2.9,32.9V11.3H2.5c0,0,0,0,0,0c-0.1,0-0.3,0-0.4,0c-0.1,0-0.3,0-0.4,0c-0.8-0.1-1.4,0.3-1.7,1.1
	C0,20.2,0,28,0,35.8c7.6,0,15.1,0,22.7,0c0.9,0,1.5-0.6,1.6-1.6v-1.3H2.9z"/>
<path fill="#4B575E" d="M9.6,2.9H9.1c-0.1,0-0.2,0-0.2,0c-0.1,0-0.3,0-0.4,0c-3,0.2-5.6,2.9-5.6,5.9c0,0.7,0,1.4,0,2.1
	c0,0,0,0,0,0.1v0.3v21.6h21.4h0.5c0.3,0,0.6,0,0.9-0.1c3.1-0.5,5.3-3,5.3-6.1c0-0.6,0-1.3,0-1.9c0,0,0,0,0,0v-0.3V2.9H9.6z
	 M13.1,22.5c-0.3,0.1-0.6,0-0.8-0.4c-0.2-0.5-0.4-0.9-0.5-1.4c-0.1-0.3-0.3-0.5-0.6-0.5c-1,0-2.1,0-3.1,0c-0.3,0-0.4,0.1-0.5,0.4
	c-0.2,0.5-0.3,1-0.5,1.4c-0.2,0.4-0.5,0.6-0.8,0.4C6,22.3,5.9,22.1,6,21.7C7,19,8,16.3,9,13.6c0.1-0.4,0.3-0.6,0.7-0.6
	c0.5,0,0.7,0.2,0.9,0.7c0.4,1.2,0.9,2.4,1.3,3.7c0.5,1.4,1,2.8,1.5,4.1c0,0.1,0.1,0.2,0.1,0.3C13.5,22.1,13.4,22.4,13.1,22.5z
	 M20.5,20.3c-0.5,1.8-2,2.4-3.6,2.3c-2-0.2-2.9-1.6-3-3.4c-0.1-1.1-0.1-2.3,0.1-3.4c0.2-2,1.8-3.1,3.7-2.9c1.7,0.2,2.8,1.4,3,3.2
	c0.1,0.6,0.1,1.1,0.1,1.6C20.7,18.6,20.7,19.5,20.5,20.3z M25.8,18.6c-0.7,0-1.4,0-2.2,0c-0.5,0-0.5,0-0.5,0.5c0,0.9,0,1.7,0,2.6
	c0,0.2,0,0.3-0.1,0.5c-0.1,0.3-0.3,0.4-0.6,0.4c-0.3,0-0.5-0.2-0.5-0.5c0-0.4,0-0.8,0-1.1c0-1.1,0-2.1,0-3.2c0-1.3,0-2.6,0-4
	c0-0.6,0.1-0.8,0.8-0.8c1.1,0,2.1,0,3.2,0.1c1.5,0.1,2.5,1.2,2.5,2.8C28.4,17.4,27.4,18.5,25.8,18.6z"/>
<path fill="#EA6125" d="M33.8,0.3c0-0.2-0.1-0.3-0.3-0.3c-0.1,0-0.2,0-0.3,0c-7.2,0-14.5,0-21.7,0c-0.1,0-0.3,0-0.4,0
	c-0.8,0.1-1.3,0.6-1.4,1.3v1.6h21.3v21.6h0.3c0,0,0,0,0,0c0.3,0,0.5,0,0.8,0c1.3,0,1.8-0.6,1.8-1.8c0-6.6,0-13.2,0-19.8
	c0-0.8,0-1.5,0-2.3C33.8,0.5,33.8,0.4,33.8,0.3z"/>
<path fill="#4B575E" d="M18.2,14.2c-1-0.5-2.6-0.3-3.1,1.5C15,16.4,15,17.1,15,17.7c0,0.5,0,1.1,0.1,1.6c0.1,1.1,0.7,1.9,1.6,2.1
	c1.4,0.3,2.4-0.3,2.7-1.7c0.3-1.3,0.2-2.6,0-3.9C19.2,15.1,18.9,14.5,18.2,14.2z"/>
<path fill="#4B575E" d="M9.9,15.1c0-0.1,0-0.2-0.2-0.2c0,0-0.1,0.1-0.1,0.1c-0.5,1.3-0.9,2.6-1.4,3.9c-0.1,0.3,0,0.3,0.2,0.3
	c0.8,0,1.6,0,2.4,0c0.3,0,0.4-0.1,0.3-0.4C10.7,17.5,10.3,16.3,9.9,15.1z"/>
<path fill="#4B575E" d="M25.8,14.2c-0.8-0.1-1.6,0-2.4-0.1c-0.2,0-0.3,0.1-0.3,0.3c0,0.5,0,0.9,0,1.4c0,0.5,0,0.9,0,1.4
	c0,0.2,0.1,0.4,0.3,0.4c0.8,0,1.5,0.1,2.3,0c0.9-0.1,1.4-0.7,1.4-1.6C27.3,14.9,26.7,14.3,25.8,14.2z"/>
</svg>
